<?xml version="1.0" encoding="UTF-8" standalone="no"?>
<!-- Created with Inkscape (http://www.inkscape.org/) -->

<svg
   xmlns:dc="http://purl.org/dc/elements/1.1/"
   xmlns:cc="http://creativecommons.org/ns#"
   xmlns:rdf="http://www.w3.org/1999/02/22-rdf-syntax-ns#"
   xmlns:svg="http://www.w3.org/2000/svg"
   xmlns="http://www.w3.org/2000/svg"
   xmlns:sodipodi="http://sodipodi.sourceforge.net/DTD/sodipodi-0.dtd"
   xmlns:inkscape="http://www.inkscape.org/namespaces/inkscape"
   width="71.693405mm"
   height="134.1696mm"
   viewBox="0 0 71.693405 134.1696"
   version="1.1"
   id="svg3743"
   inkscape:version="0.92.4 (5da689c313, 2019-01-14)"
   sodipodi:docname="orchid.svg">
  <defs
     id="defs3737" />
  <sodipodi:namedview
     id="base"
     pagecolor="#ffffff"
     bordercolor="#666666"
     borderopacity="1.0"
     inkscape:pageopacity="0.0"
     inkscape:pageshadow="2"
     inkscape:zoom="0.35"
     inkscape:cx="-205.94498"
     inkscape:cy="38.099006"
     inkscape:document-units="mm"
     inkscape:current-layer="layer1"
     showgrid="false"
     inkscape:window-width="1920"
     inkscape:window-height="1001"
     inkscape:window-x="-9"
     inkscape:window-y="-9"
     inkscape:window-maximized="1" />
  <metadata
     id="metadata3740">
    <rdf:RDF>
      <cc:Work
         rdf:about="">
        <dc:format>image/svg+xml</dc:format>
        <dc:type
           rdf:resource="http://purl.org/dc/dcmitype/StillImage" />
        <dc:title></dc:title>
      </cc:Work>
    </rdf:RDF>
  </metadata>
  <g
     inkscape:label="Layer 1"
     inkscape:groupmode="layer"
     id="layer1"
     transform="translate(-34.078895,-24.744086)">
    <g
       id="g3222"
       transform="matrix(0.52155353,0,0,0.52155353,-131.82217,-198.40091)">
      <path
         style="opacity:1;fill:#44aa57;fill-opacity:1;fill-rule:nonzero;stroke:none;stroke-width:1.75855529;stroke-linecap:round;stroke-miterlimit:4;stroke-dasharray:none;stroke-opacity:1"
         d="m 385.36069,518.99846 2.63415,0.79375 c 0,0 -7.39373,22.08669 -8.734,33.57189 -2.77093,23.74486 1.59025,71.70034 1.59025,71.70034 h -3.4279 c 0,0 -4.66253,-49.06125 -1.49671,-73.29059 1.47292,-11.27291 9.43421,-32.77539 9.43421,-32.77539 z"
         id="rect3675"
         inkscape:connector-curvature="0"
         sodipodi:nodetypes="ccsccsc" />
      <g
         transform="translate(199.63861,-6.022334)"
         id="g3145"
         style="fill:#d38d5f">
        <path
           style="opacity:1;fill:#d38d5f;fill-opacity:1;fill-rule:nonzero;stroke:none;stroke-width:4.9000001;stroke-linecap:round;stroke-miterlimit:4;stroke-dasharray:none;stroke-opacity:1"
           d="M 132.29773,624.1413 H 240.80915 L 218.5456,691.11904 H 151.56786 Z"
           id="path3141"
           inkscape:connector-curvature="0"
           sodipodi:nodetypes="ccccc" />
        <path
           style="opacity:1;fill:#d38d5f;fill-opacity:1;fill-rule:nonzero;stroke:none;stroke-width:4.22113943;stroke-linecap:round;stroke-miterlimit:4;stroke-dasharray:none;stroke-opacity:1"
           d="m 120.85928,611.30896 h 132.64588 c 0,0 5.41731,11.46043 0,14.99472 -31.26493,20.39746 -101.38095,20.39746 -132.64588,0 -5.41731,-3.53429 0,-14.99472 0,-14.99472 z"
           id="path3143"
           inkscape:connector-curvature="0"
           sodipodi:nodetypes="ccssc" />
      </g>
      <g
         transform="matrix(0.80047806,0,0,0.80047806,61.213492,104.4262)"
         id="g3185">
        <path
           style="opacity:1;fill:#d35f8d;fill-opacity:1;fill-rule:nonzero;stroke:none;stroke-width:2.46499991;stroke-linecap:round;stroke-miterlimit:4;stroke-dasharray:none;stroke-opacity:1"
           inkscape:transform-center-x="39.28982"
           inkscape:transform-center-y="21.552227"
           d="m 379.08894,539.76198 c -24.60516,-64.10328 -38.35846,-59.60096 -40.31691,-69.19683 -1.95845,-9.59586 16.41693,-4.09677 24.09576,-9.90929 7.67882,-5.81251 17.06929,4.43305 26.14322,7.8713 9.07393,3.43824 14.50741,16.81583 16.6902,26.20539 2.18279,9.38956 -2.42011,20.207 -9.35085,26.7681 -6.93073,6.5611 -13.90459,27.00681 -17.26142,18.26133 z"
           id="path3153"
           inkscape:connector-curvature="0"
           sodipodi:nodetypes="sssssss" />
        <path
           sodipodi:nodetypes="sssssss"
           inkscape:connector-curvature="0"
           id="path3174"
           d="m 373.51596,414.52747 c 67.54569,12.33793 70.85608,-1.74984 80.06991,1.57005 9.21381,3.31989 -5.04254,16.15153 -4.07367,25.73334 0.96887,9.5818 -12.66643,12.27087 -20.32357,18.23123 -7.65714,5.96036 -21.90851,3.64065 -31.06286,0.61969 -9.15435,-3.02097 -15.99775,-12.57982 -17.99512,-21.91223 -1.99737,-9.33239 -15.82981,-25.92532 -6.61469,-24.24208 z"
           inkscape:transform-center-y="-35.00098"
           inkscape:transform-center-x="-4.9881955"
           style="opacity:1;fill:#d35f8d;fill-opacity:1;fill-rule:nonzero;stroke:none;stroke-width:2.46499991;stroke-linecap:round;stroke-miterlimit:4;stroke-dasharray:none;stroke-opacity:1" />
        <path
           sodipodi:nodetypes="sssssss"
           inkscape:connector-curvature="0"
           id="path3172"
           d="m 461.42273,448.92724 c 5.26918,7.74515 15.0537,65.42895 11.38825,74.51085 -3.66545,9.08187 -20.35566,-6.66267 -29.96723,-6.05631 -9.61155,0.60636 -23.35845,-6.66426 -29.02541,-14.54102 -5.66698,-7.87674 -2.81078,-22.03035 0.55371,-31.0641 3.3645,-9.03375 13.17494,-15.51131 22.57611,-17.15485 9.40116,-1.64355 19.2054,-13.43973 24.47457,-5.69457 z"
           inkscape:transform-center-y="4.3425516"
           inkscape:transform-center-x="-35.522885"
           style="opacity:1;fill:#d35f8d;fill-opacity:1;fill-rule:nonzero;stroke:none;stroke-width:2.46499991;stroke-linecap:round;stroke-miterlimit:4;stroke-dasharray:none;stroke-opacity:1" />
        <path
           sodipodi:type="star"
           style="opacity:1;fill:#ffe528;fill-opacity:1;fill-rule:nonzero;stroke:none;stroke-width:2.46499991;stroke-linecap:round;stroke-miterlimit:4;stroke-dasharray:none;stroke-opacity:1"
           id="path3151"
           sodipodi:sides="4"
           sodipodi:cx="398.87305"
           sodipodi:cy="479.59854"
           sodipodi:r1="16.771328"
           sodipodi:r2="11.859119"
           sodipodi:arg1="0.67474094"
           sodipodi:arg2="1.4601391"
           inkscape:flatsided="true"
           inkscape:rounded="0.13"
           inkscape:randomized="0.065"
           d="m 410.94494,489.1458 c -1.75575,2.42167 -20.58313,4.57412 -22.99847,2.62386 -2.41535,-1.95027 -4.14082,-20.51289 -2.05293,-22.7149 2.08789,-2.202 20.62369,-4.51692 22.99626,-2.5708 2.37258,1.94613 3.81088,20.24017 2.05514,22.66184 z"
           inkscape:transform-center-x="0.76839007"
           inkscape:transform-center-y="-0.033738074"
           transform="translate(6.8791667,3.7041667)" />
        <path
           sodipodi:nodetypes="sssssss"
           inkscape:connector-curvature="0"
           id="path3156"
           d="m 421.94015,544.09575 c -8.95552,2.74778 -66.95689,-4.93333 -74.55187,-11.11657 -7.59496,-6.18325 12.37514,-17.48142 14.63335,-26.8436 2.25821,-9.36216 13.26316,-20.3499 22.46184,-23.43889 9.19869,-3.089 21.87824,3.81835 29.51607,9.69984 7.63783,5.88149 10.93043,17.167 9.72528,26.63435 -1.20513,9.46735 7.17085,22.31709 -1.78467,25.06487 z"
           inkscape:transform-center-y="31.352534"
           inkscape:transform-center-x="20.678879"
           style="opacity:1;fill:#dd96e9;fill-opacity:1;fill-rule:nonzero;stroke:none;stroke-width:2.46499991;stroke-linecap:round;stroke-miterlimit:4;stroke-dasharray:none;stroke-opacity:1" />
        <path
           style="opacity:1;fill:#c39de9;fill-opacity:1;fill-rule:nonzero;stroke:none;stroke-width:2.46499991;stroke-linecap:round;stroke-miterlimit:4;stroke-dasharray:none;stroke-opacity:1"
           inkscape:transform-center-x="-25.515315"
           inkscape:transform-center-y="37.046238"
           d="m 468.17489,499.39208 c -2.04934,9.14067 -37.45384,55.72049 -46.58743,59.25513 -9.13359,3.53463 -9.05556,-19.40982 -16.06968,-26.00921 -7.0141,-6.59939 -11.10745,-21.60218 -9.23407,-31.12311 1.87338,-9.52094 14.15473,-17.11376 23.04742,-20.83511 8.89269,-3.72135 20.32727,-0.99108 27.9544,4.74564 7.62714,5.7367 22.93869,4.82599 20.88936,13.96666 z"
           id="path3158"
           inkscape:connector-curvature="0"
           sodipodi:nodetypes="sssssss" />
        <path
           sodipodi:nodetypes="sssssss"
           inkscape:connector-curvature="0"
           id="path3160"
           d="m 429.12842,422.03505 c 8.93657,2.80882 52.38258,41.99558 55.13866,51.39346 2.75607,9.39788 -20.10098,7.39559 -27.26545,13.83145 -7.16446,6.43584 -22.45772,9.25636 -31.78797,6.59099 -9.33025,-2.66538 -15.86618,-15.54032 -18.82851,-24.71381 -2.96234,-9.1735 0.71742,-20.33877 7.07367,-27.45784 6.35624,-7.11908 6.73304,-22.45306 15.6696,-19.64425 z"
           inkscape:transform-center-y="-23.676026"
           inkscape:transform-center-x="-38.340189"
           style="opacity:1;fill:#ddafe9;fill-opacity:1;fill-rule:nonzero;stroke:none;stroke-width:2.46499991;stroke-linecap:round;stroke-miterlimit:4;stroke-dasharray:none;stroke-opacity:1" />
        <path
           style="opacity:1;fill:#ddafe9;fill-opacity:1;fill-rule:nonzero;stroke:none;stroke-width:2.46499991;stroke-linecap:round;stroke-miterlimit:4;stroke-dasharray:none;stroke-opacity:1"
           inkscape:transform-center-x="18.404584"
           inkscape:transform-center-y="-40.006814"
           d="m 352.05775,448.4027 c 4.45949,-8.238 51.20378,-43.42507 60.95455,-44.34075 9.75078,-0.91566 3.43172,21.14161 8.3852,29.40072 4.95346,8.2591 4.80954,23.80962 0.4159,32.46142 -4.39366,8.65179 -18.27777,12.61588 -27.84755,13.77677 -9.56979,1.16089 -19.82981,-4.57808 -25.60793,-12.17389 -5.77813,-7.59581 -20.75965,-10.88627 -16.30017,-19.12427 z"
           id="path3162"
           inkscape:connector-curvature="0"
           sodipodi:nodetypes="sssssss" />
        <path
           sodipodi:nodetypes="sssssss"
           inkscape:connector-curvature="0"
           id="path3164"
           d="m 352.05775,448.4027 c 4.45949,-8.238 51.20378,-43.42507 60.95455,-44.34075 9.75078,-0.91566 3.43172,21.14161 8.3852,29.40072 4.95346,8.2591 4.80954,23.80962 0.4159,32.46142 -4.39366,8.65179 -18.27777,12.61588 -27.84755,13.77677 -9.56979,1.16089 -19.82981,-4.57808 -25.60793,-12.17389 -5.77813,-7.59581 -20.75965,-10.88627 -16.30017,-19.12427 z"
           inkscape:transform-center-y="-40.006814"
           inkscape:transform-center-x="18.404584"
           style="opacity:1;fill:#b8afe9;fill-opacity:1;fill-rule:nonzero;stroke:none;stroke-width:2.46499991;stroke-linecap:round;stroke-miterlimit:4;stroke-dasharray:none;stroke-opacity:1" />
      </g>
      <path
         sodipodi:nodetypes="sczss"
         inkscape:connector-curvature="0"
         id="path3187"
         d="m 391.28999,568.63629 c -11.2572,-1.45259 -14.66824,9.39755 -15.12876,6.68309 -0.46052,-2.71446 -0.60098,-15.15912 11.97835,-17.79155 12.57933,-2.63243 53.18967,8.23536 53.39552,10.92416 0.20585,2.6888 -50.24511,0.1843 -50.24511,0.1843 z"
         inkscape:transform-center-y="-3.5599699"
         inkscape:transform-center-x="0.23453217"
         style="opacity:1;fill:#44aa57;fill-opacity:1;fill-rule:nonzero;stroke:none;stroke-width:2.46499991;stroke-linecap:round;stroke-miterlimit:4;stroke-dasharray:none;stroke-opacity:1" />
      <path
         style="opacity:1;fill:#44aa57;fill-opacity:1;fill-rule:nonzero;stroke:none;stroke-width:1.52404082;stroke-linecap:round;stroke-miterlimit:4;stroke-dasharray:none;stroke-opacity:1"
         inkscape:transform-center-x="-0.38948736"
         inkscape:transform-center-y="-3.2030902"
         d="m 366.68537,550.76721 c 6.51363,-2.61169 10.23463,3.35519 10.0902,1.65907 -0.14444,-1.69612 -1.98631,-9.1671 -9.92357,-8.79605 -7.93725,0.37105 -30.56425,13.16132 -30.27135,14.80266 0.2929,1.64135 30.10472,-7.66568 30.10472,-7.66568 z"
         id="path3190"
         inkscape:connector-curvature="0"
         sodipodi:nodetypes="sczss" />
    </g>
  </g>
</svg>
