<?xml version="1.0" encoding="UTF-8" standalone="no"?>
<!-- Created with Inkscape (http://www.inkscape.org/) -->

<svg
   xmlns:dc="http://purl.org/dc/elements/1.1/"
   xmlns:cc="http://creativecommons.org/ns#"
   xmlns:rdf="http://www.w3.org/1999/02/22-rdf-syntax-ns#"
   xmlns:svg="http://www.w3.org/2000/svg"
   xmlns="http://www.w3.org/2000/svg"
   xmlns:sodipodi="http://sodipodi.sourceforge.net/DTD/sodipodi-0.dtd"
   xmlns:inkscape="http://www.inkscape.org/namespaces/inkscape"
   width="102.27206mm"
   height="130.19666mm"
   viewBox="0 0 102.27206 130.19666"
   version="1.1"
   id="svg4354"
   inkscape:version="0.92.4 (5da689c313, 2019-01-14)"
   sodipodi:docname="succulent.svg">
  <defs
     id="defs4348" />
  <sodipodi:namedview
     id="base"
     pagecolor="#ffffff"
     bordercolor="#666666"
     borderopacity="1.0"
     inkscape:pageopacity="0.0"
     inkscape:pageshadow="2"
     inkscape:zoom="0.35"
     inkscape:cx="-301.01569"
     inkscape:cy="74.036158"
     inkscape:document-units="mm"
     inkscape:current-layer="layer1"
     showgrid="false"
     inkscape:window-width="1920"
     inkscape:window-height="1001"
     inkscape:window-x="-9"
     inkscape:window-y="-9"
     inkscape:window-maximized="1" />
  <metadata
     id="metadata4351">
    <rdf:RDF>
      <cc:Work
         rdf:about="">
        <dc:format>image/svg+xml</dc:format>
        <dc:type
           rdf:resource="http://purl.org/dc/dcmitype/StillImage" />
        <dc:title></dc:title>
      </cc:Work>
    </rdf:RDF>
  </metadata>
  <g
     inkscape:label="Layer 1"
     inkscape:groupmode="layer"
     id="layer1"
     transform="translate(-59.233021,-38.225417)">
    <g
       transform="matrix(0.51777538,0,0,0.51777538,-201.80337,-186.57813)"
       id="g3095">
      <g
         id="g3204"
         transform="translate(413.80833,5.2916667)">
        <path
           sodipodi:nodetypes="sasss"
           inkscape:connector-curvature="0"
           id="path3139"
           d="m 219.76294,624.28649 c -14.34856,-3.37408 -28.26909,-64.99709 -24.45246,-98.66464 3.52586,-31.10244 45.16755,-97.68095 42.41939,-83.77789 -1.76512,8.92984 -4.4594,74.73162 -6.55899,88.53636 -2.0996,13.80476 2.94061,97.28026 -11.40794,93.90617 z"
           inkscape:transform-center-y="-84.353909"
           inkscape:transform-center-x="5.0078074"
           style="opacity:1;fill:#449357;fill-opacity:1;fill-rule:nonzero;stroke:none;stroke-width:4.9000001;stroke-linecap:round;stroke-miterlimit:4;stroke-dasharray:none;stroke-opacity:1" />
        <path
           sodipodi:nodetypes="sasss"
           inkscape:connector-curvature="0"
           id="path3101"
           d="m 183.65153,643.96812 c -13.6562,5.54742 -60.65661,-36.66795 -77.01786,-66.33916 -15.114695,-27.41057 -19.657989,-105.80754 -13.857676,-92.87681 3.725504,8.30532 39.589936,63.54004 45.862426,76.01543 6.2725,12.47539 58.66931,77.65313 45.01311,83.20054 z"
           inkscape:transform-center-y="19.493096"
           inkscape:transform-center-x="6.0995622"
           style="opacity:1;fill:#44aa6f;fill-opacity:1;fill-rule:nonzero;stroke:none;stroke-width:4.9000001;stroke-linecap:round;stroke-miterlimit:4;stroke-dasharray:none;stroke-opacity:1" />
        <path
           style="opacity:1;fill:#44aa9a;fill-opacity:1;fill-rule:nonzero;stroke:none;stroke-width:4.9000001;stroke-linecap:round;stroke-miterlimit:4;stroke-dasharray:none;stroke-opacity:1"
           inkscape:transform-center-x="18.027216"
           inkscape:transform-center-y="-84.394808"
           d="m 154.56088,613.48424 c -14.71618,-0.83651 -39.105,-59.11482 -41.18051,-92.93439 -1.91736,-31.24287 27.55662,-104.03032 27.25936,-89.86137 -0.19092,9.10062 8.55863,74.37372 8.88309,88.33345 0.32445,13.95974 19.75423,95.29883 5.03806,94.46231 z"
           id="path3104"
           inkscape:connector-curvature="0"
           sodipodi:nodetypes="sasss" />
        <path
           sodipodi:nodetypes="sasss"
           inkscape:connector-curvature="0"
           id="path3106"
           d="m 159.0142,616.51491 c -14.34856,-3.37408 -28.26909,-64.99709 -24.45246,-98.66464 3.52586,-31.10244 45.16755,-97.68095 42.41939,-83.77789 -1.76512,8.92984 -4.4594,74.73162 -6.55899,88.53636 -2.0996,13.80476 2.94061,97.28026 -11.40794,93.90617 z"
           inkscape:transform-center-y="-84.353909"
           inkscape:transform-center-x="5.0078088"
           style="opacity:1;fill:#44aa6f;fill-opacity:1;fill-rule:nonzero;stroke:none;stroke-width:4.9000001;stroke-linecap:round;stroke-miterlimit:4;stroke-dasharray:none;stroke-opacity:1" />
        <path
           style="opacity:1;fill:#44aa57;fill-opacity:1;fill-rule:nonzero;stroke:none;stroke-width:4.9000001;stroke-linecap:round;stroke-miterlimit:4;stroke-dasharray:none;stroke-opacity:1"
           inkscape:transform-center-x="-5.0078043"
           inkscape:transform-center-y="-84.353909"
           d="m 173.14762,630.27333 c 14.34856,-3.37408 28.26909,-64.99709 24.45246,-98.66464 -3.52586,-31.10244 -45.16755,-97.68095 -42.41939,-83.77789 1.76512,8.92984 4.4594,74.73162 6.55899,88.53636 2.0996,13.80476 -2.94061,97.28026 11.40794,93.90617 z"
           id="path3108"
           inkscape:connector-curvature="0"
           sodipodi:nodetypes="sasss" />
        <path
           sodipodi:nodetypes="sasss"
           inkscape:connector-curvature="0"
           id="path3131"
           d="m 220.89952,624.52701 c 10.32807,3.89056 44.69914,-28.60867 56.377,-51.13131 10.78814,-20.80667 12.68637,-79.57439 8.59262,-69.78448 -2.6294,6.28798 -28.41561,48.31886 -32.87153,57.77697 -4.45592,9.45814 -42.42615,59.24826 -32.09809,63.13882 z"
           inkscape:transform-center-y="-55.389413"
           inkscape:transform-center-x="-30.296117"
           style="opacity:1;fill:#44aa57;fill-opacity:1;fill-rule:nonzero;stroke:none;stroke-width:3.66888428;stroke-linecap:round;stroke-miterlimit:4;stroke-dasharray:none;stroke-opacity:1" />
        <path
           style="opacity:1;fill:#44aa57;fill-opacity:1;fill-rule:nonzero;stroke:none;stroke-width:3.66888428;stroke-linecap:round;stroke-miterlimit:4;stroke-dasharray:none;stroke-opacity:1"
           inkscape:transform-center-x="13.704225"
           inkscape:transform-center-y="-63.158022"
           d="m 238.49095,614.31731 c -11.02222,-0.56226 -29.53682,-44.09134 -31.23807,-69.40433 -1.57163,-23.38442 20.17979,-78.01156 20.0189,-67.40141 -0.10332,6.81482 6.732,55.64926 7.03572,66.10004 0.3037,10.4508 15.20566,71.26796 4.18345,70.7057 z"
           id="path3133"
           inkscape:connector-curvature="0"
           sodipodi:nodetypes="sasss" />
        <path
           sodipodi:nodetypes="sasss"
           inkscape:connector-curvature="0"
           id="path3135"
           d="m 225.91405,628.53605 c 11.02222,-0.56226 29.53682,-44.09134 31.23807,-69.40433 1.57163,-23.38442 -20.17979,-78.01156 -20.0189,-67.40141 0.10332,6.81482 -6.732,55.64926 -7.03572,66.10004 -0.3037,10.4508 -15.20566,71.26796 -4.18345,70.7057 z"
           inkscape:transform-center-y="-63.158022"
           inkscape:transform-center-x="-13.704221"
           style="opacity:1;fill:#44aa6f;fill-opacity:1;fill-rule:nonzero;stroke:none;stroke-width:3.66888428;stroke-linecap:round;stroke-miterlimit:4;stroke-dasharray:none;stroke-opacity:1" />
        <path
           style="opacity:1;fill:#44b757;fill-opacity:1;fill-rule:nonzero;stroke:none;stroke-width:3.66888428;stroke-linecap:round;stroke-miterlimit:4;stroke-dasharray:none;stroke-opacity:1"
           inkscape:transform-center-x="-13.704221"
           inkscape:transform-center-y="-63.158022"
           d="m 189.24467,620.30415 c 11.02222,-0.56226 29.53682,-44.09134 31.23807,-69.40433 1.57163,-23.38442 -20.17979,-78.01156 -20.0189,-67.40141 0.10332,6.81482 -6.732,55.64926 -7.03572,66.10004 -0.3037,10.4508 -15.20566,71.26796 -4.18345,70.7057 z"
           id="path3137"
           inkscape:connector-curvature="0"
           sodipodi:nodetypes="sasss" />
        <g
           style="fill:#d38d5f"
           id="g3099"
           transform="translate(6.4927803,-10.784834)">
          <path
             sodipodi:nodetypes="ccccc"
             inkscape:connector-curvature="0"
             id="rect3087"
             d="M 132.29773,624.1413 H 240.80915 L 218.5456,691.11904 H 151.56786 Z"
             style="opacity:1;fill:#d38d5f;fill-opacity:1;fill-rule:nonzero;stroke:none;stroke-width:4.9000001;stroke-linecap:round;stroke-miterlimit:4;stroke-dasharray:none;stroke-opacity:1" />
          <path
             sodipodi:nodetypes="ccssc"
             inkscape:connector-curvature="0"
             id="rect3090"
             d="m 120.85928,611.30896 h 132.64588 c 0,0 5.41731,11.46043 0,14.99472 -31.26493,20.39746 -101.38095,20.39746 -132.64588,0 -5.41731,-3.53429 0,-14.99472 0,-14.99472 z"
             style="opacity:1;fill:#d38d5f;fill-opacity:1;fill-rule:nonzero;stroke:none;stroke-width:4.22113943;stroke-linecap:round;stroke-miterlimit:4;stroke-dasharray:none;stroke-opacity:1" />
        </g>
      </g>
    </g>
  </g>
</svg>
